<svg width="48" height="48" viewBox="0 0 48 48" fill="none" xmlns="http://www.w3.org/2000/svg">
<path d="M0 24C0 20.284 0 18.426 0.246233 16.8713C1.60166 8.31346 8.31346 1.60166 16.8713 0.246233C18.426 0 20.284 0 24 0V0C27.716 0 29.574 0 31.1287 0.246233C39.6865 1.60166 46.3983 8.31346 47.7538 16.8713C48 18.426 48 20.284 48 24V24C48 27.716 48 29.574 47.7538 31.1287C46.3983 39.6865 39.6865 46.3983 31.1287 47.7538C29.574 48 27.716 48 24 48V48C20.284 48 18.426 48 16.8713 47.7538C8.31346 46.3983 1.60166 39.6865 0.246233 31.1287C0 29.574 0 27.716 0 24V24Z" fill="#FFEEC4"/>
<path d="M0 24C0 20.284 0 18.426 0.246233 16.8713C1.60166 8.31346 8.31346 1.60166 16.8713 0.246233C18.426 0 20.284 0 24 0V0C27.716 0 29.574 0 31.1287 0.246233C39.6865 1.60166 46.3983 8.31346 47.7538 16.8713C48 18.426 48 20.284 48 24V24C48 27.716 48 29.574 47.7538 31.1287C46.3983 39.6865 39.6865 46.3983 31.1287 47.7538C29.574 48 27.716 48 24 48V48C20.284 48 18.426 48 16.8713 47.7538C8.31346 46.3983 1.60166 39.6865 0.246233 31.1287C0 29.574 0 27.716 0 24V24Z" fill="url(#paint0_linear)"/>
<path d="M15.75 29.5V24C15.75 21.812 16.6192 19.7135 18.1664 18.1664C19.7135 16.6192 21.812 15.75 24 15.75C26.188 15.75 28.2865 16.6192 29.8336 18.1664C31.3808 19.7135 32.25 21.812 32.25 24V29.5" stroke="#4D2607" stroke-width="2" stroke-linecap="round" stroke-linejoin="round"/>
<path d="M32.25 30.4166C32.25 30.9029 32.0568 31.3692 31.713 31.713C31.3692 32.0568 30.9029 32.25 30.4167 32.25H29.5C29.0138 32.25 28.5475 32.0568 28.2036 31.713C27.8598 31.3692 27.6667 30.9029 27.6667 30.4166V27.6666C27.6667 27.1804 27.8598 26.7141 28.2036 26.3703C28.5475 26.0265 29.0138 25.8333 29.5 25.8333H32.25V30.4166ZM15.75 30.4166C15.75 30.9029 15.9432 31.3692 16.287 31.713C16.6308 32.0568 17.0971 32.25 17.5833 32.25H18.5C18.9862 32.25 19.4525 32.0568 19.7964 31.713C20.1402 31.3692 20.3333 30.9029 20.3333 30.4166V27.6666C20.3333 27.1804 20.1402 26.7141 19.7964 26.3703C19.4525 26.0265 18.9862 25.8333 18.5 25.8333H15.75V30.4166Z" stroke="#4D2607" stroke-width="2" stroke-linecap="round" stroke-linejoin="round"/>
<defs>
<linearGradient id="paint0_linear" x1="41.6" y1="65.7778" x2="18.0472" y2="23.0087" gradientUnits="userSpaceOnUse">
<stop stop-color="#F8C6FF"/>
<stop offset="1" stop-color="#FFC4FF" stop-opacity="0"/>
</linearGradient>
</defs>
</svg>
