<svg width="48" height="48" viewBox="0 0 48 48" fill="none" xmlns="http://www.w3.org/2000/svg">
<path d="M0 24C0 20.284 0 18.426 0.246233 16.8713C1.60166 8.31346 8.31346 1.60166 16.8713 0.246233C18.426 0 20.284 0 24 0V0C27.716 0 29.574 0 31.1287 0.246233C39.6865 1.60166 46.3983 8.31346 47.7538 16.8713C48 18.426 48 20.284 48 24V24C48 27.716 48 29.574 47.7538 31.1287C46.3983 39.6865 39.6865 46.3983 31.1287 47.7538C29.574 48 27.716 48 24 48V48C20.284 48 18.426 48 16.8713 47.7538C8.31346 46.3983 1.60166 39.6865 0.246233 31.1287C0 29.574 0 27.716 0 24V24Z" fill="url(#paint0_linear)"/>
<path d="M32.332 25.4384V30.3334C32.332 30.8196 32.1389 31.2859 31.7951 31.6297C31.4512 31.9735 30.9849 32.1667 30.4987 32.1667H17.6654C17.1791 32.1667 16.7128 31.9735 16.369 31.6297C16.0252 31.2859 15.832 30.8196 15.832 30.3334V17.5C15.832 17.0138 16.0252 16.5475 16.369 16.2037C16.7128 15.8598 17.1791 15.6667 17.6654 15.6667H22.5604" stroke="#632038" stroke-width="2" stroke-linecap="round" stroke-linejoin="round"/>
<path d="M30.4987 13.8333L34.1654 17.5L24.9987 26.6666H21.332V23L30.4987 13.8333Z" stroke="#632038" stroke-width="2" stroke-linecap="round" stroke-linejoin="round"/>
<defs>
<linearGradient id="paint0_linear" x1="24" y1="62.5" x2="30.3358" y2="0.649026" gradientUnits="userSpaceOnUse">
<stop stop-color="#E59EF0"/>
<stop offset="1" stop-color="#FFEBC4"/>
</linearGradient>
</defs>
</svg>
