<svg width="48" height="48" viewBox="0 0 48 48" fill="none" xmlns="http://www.w3.org/2000/svg">
<path d="M0 24C0 20.284 0 18.426 0.246233 16.8713C1.60166 8.31346 8.31346 1.60166 16.8713 0.246233C18.426 0 20.284 0 24 0V0C27.716 0 29.574 0 31.1287 0.246233C39.6865 1.60166 46.3983 8.31346 47.7538 16.8713C48 18.426 48 20.284 48 24V24C48 27.716 48 29.574 47.7538 31.1287C46.3983 39.6865 39.6865 46.3983 31.1287 47.7538C29.574 48 27.716 48 24 48V48C20.284 48 18.426 48 16.8713 47.7538C8.31346 46.3983 1.60166 39.6865 0.246233 31.1287C0 29.574 0 27.716 0 24V24Z" fill="url(#paint0_linear)"/>
<path d="M30.4154 32.25L23.9987 27.6667L17.582 32.25V17.5833C17.582 17.0971 17.7752 16.6308 18.119 16.287C18.4628 15.9432 18.9291 15.75 19.4154 15.75H28.582C29.0683 15.75 29.5346 15.9432 29.8784 16.287C30.2222 16.6308 30.4154 17.0971 30.4154 17.5833V32.25Z" stroke="#044D45" stroke-width="2" stroke-linecap="round" stroke-linejoin="round"/>
<defs>
<linearGradient id="paint0_linear" x1="24" y1="68" x2="30.3358" y2="6.14902" gradientUnits="userSpaceOnUse">
<stop stop-color="#17DDB9"/>
<stop offset="1" stop-color="#EDDCF6"/>
</linearGradient>
</defs>
</svg>
