<svg width="48" height="48" viewBox="0 0 48 48" fill="none" xmlns="http://www.w3.org/2000/svg">
<path d="M0 24C0 20.284 0 18.426 0.246233 16.8713C1.60166 8.31346 8.31346 1.60166 16.8713 0.246233C18.426 0 20.284 0 24 0V0C27.716 0 29.574 0 31.1287 0.246233C39.6865 1.60166 46.3983 8.31346 47.7538 16.8713C48 18.426 48 20.284 48 24V24C48 27.716 48 29.574 47.7538 31.1287C46.3983 39.6865 39.6865 46.3983 31.1287 47.7538C29.574 48 27.716 48 24 48V48C20.284 48 18.426 48 16.8713 47.7538C8.31346 46.3983 1.60166 39.6865 0.246233 31.1287C0 29.574 0 27.716 0 24V24Z" fill="#FFEAEE"/>
<path d="M0 24C0 20.284 0 18.426 0.246233 16.8713C1.60166 8.31346 8.31346 1.60166 16.8713 0.246233C18.426 0 20.284 0 24 0V0C27.716 0 29.574 0 31.1287 0.246233C39.6865 1.60166 46.3983 8.31346 47.7538 16.8713C48 18.426 48 20.284 48 24V24C48 27.716 48 29.574 47.7538 31.1287C46.3983 39.6865 39.6865 46.3983 31.1287 47.7538C29.574 48 27.716 48 24 48V48C20.284 48 18.426 48 16.8713 47.7538C8.31346 46.3983 1.60166 39.6865 0.246233 31.1287C0 29.574 0 27.716 0 24V24Z" fill="url(#paint0_linear)"/>
<path d="M32.1017 17.2259C31.6335 16.7574 31.0776 16.3859 30.4657 16.1324C29.8539 15.8788 29.1981 15.7484 28.5358 15.7484C27.8735 15.7484 27.2177 15.8788 26.6059 16.1324C25.9941 16.3859 25.4382 16.7574 24.97 17.2259L23.9983 18.1975L23.0267 17.2259C22.0809 16.2801 20.7983 15.7488 19.4608 15.7488C18.1234 15.7488 16.8407 16.2801 15.895 17.2259C14.9493 18.1716 14.418 19.4542 14.418 20.7917C14.418 22.1291 14.9493 23.4118 15.895 24.3575L16.8667 25.3292L23.9983 32.4609L31.13 25.3292L32.1017 24.3575C32.5701 23.8893 32.9416 23.3334 33.1952 22.7216C33.4487 22.1098 33.5792 21.454 33.5792 20.7917C33.5792 20.1294 33.4487 19.4736 33.1952 18.8618C32.9416 18.2499 32.5701 17.6941 32.1017 17.2259V17.2259Z" stroke="#54156A" stroke-width="2" stroke-linecap="round" stroke-linejoin="round"/>
<defs>
<linearGradient id="paint0_linear" x1="13.3333" y1="70.4" x2="18.7579" y2="17.4446" gradientUnits="userSpaceOnUse">
<stop stop-color="#DACDFF"/>
<stop offset="1" stop-color="#DACDFF" stop-opacity="0"/>
</linearGradient>
</defs>
</svg>
